<?xml version="1.0" encoding="UTF-8"?><!DOCTYPE svg PUBLIC "-//W3C//DTD SVG 1.1//EN" "http://www.w3.org/Graphics/SVG/1.1/DTD/svg11.dtd"><svg xmlns="http://www.w3.org/2000/svg"><symbol id="instagram" viewBox="0 0 24 24">
    <path fill-rule="evenodd" clip-rule="evenodd" d="M16.033 3H7.967A4.973 4.973 0 0 0 3 7.967v8.066A4.973 4.973 0 0 0 7.967 21h8.066A4.973 4.973 0 0 0 21 16.033V7.967A4.973 4.973 0 0 0 16.033 3zM20 16.358A3.646 3.646 0 0 1 16.358 20H7.642A3.646 3.646 0 0 1 4 16.358V7.642A3.646 3.646 0 0 1 7.642 4h8.716A3.646 3.646 0 0 1 20 7.642v8.716zM7.362 12A4.643 4.643 0 0 1 12 7.362 4.643 4.643 0 0 1 16.638 12 4.643 4.643 0 0 1 12 16.638 4.643 4.643 0 0 1 7.362 12zm9.073-6.166a.804.804 0 0 1 1.13 0 .804.804 0 0 1 0 1.132A.808.808 0 0 1 17 7.2a.807.807 0 0 1-.565-.234.807.807 0 0 1-.235-.566.805.805 0 0 1 .235-.566z" fill="#fff"/>
    <mask id="a" maskUnits="userSpaceOnUse" x="7" y="5" width="11" height="12">
        <path fill-rule="evenodd" clip-rule="evenodd" d="M9.073.234a.803.803 0 0 1 1.131 0 .804.804 0 0 1 0 1.132.808.808 0 0 1-.566.234.807.807 0 0 1-.565-.234A.807.807 0 0 1 8.838.8a.805.805 0 0 1 .235-.566zM4.638 1.762A4.643 4.643 0 0 0 0 6.4a4.643 4.643 0 0 0 4.638 4.638A4.643 4.643 0 0 0 9.276 6.4a4.643 4.643 0 0 0-4.638-4.638zm0 8.478A3.844 3.844 0 0 1 .798 6.4a3.844 3.844 0 0 1 3.84-3.84 3.844 3.844 0 0 1 3.84 3.84 3.844 3.844 0 0 1-3.84 3.84z" transform="translate(7.362 5.6)" fill="#fff"/>
    </mask>
</symbol></svg>