<?xml version="1.0" encoding="UTF-8"?><!DOCTYPE svg PUBLIC "-//W3C//DTD SVG 1.1//EN" "http://www.w3.org/Graphics/SVG/1.1/DTD/svg11.dtd"><svg xmlns="http://www.w3.org/2000/svg"><symbol id="arrow" viewBox="0 0 16 26">
    <path d="M8.018.043L8.053.01l7.621 7.248-1.599 1.45L8.93 3.883V25H7.143V3.852L1.962 8.707.4 7.257 8.003.01l.016.033z" fill="#fff"/>
</symbol><symbol id="basket" viewBox="0 0 19 23">
    <g fill="#262626">
        <path fill-rule="evenodd" clip-rule="evenodd" d="M18.947 6.859H0v11.79a4 4 0 0 0 4 4h10.947a4 4 0 0 0 4-4V6.858zM4 21.149a2.5 2.5 0 0 1-2.5-2.5V8.358h15.947v10.29a2.5 2.5 0 0 1-2.5 2.5H4z"/>
        <path d="M6.013 12.06V5.868a3.46 3.46 0 1 1 6.921 0v6.192a.75.75 0 0 0 1.5 0V5.868a4.96 4.96 0 1 0-9.92 0v6.192a.75.75 0 0 0 1.5 0z"/>
    </g>
</symbol><symbol id="facebook" viewBox="0 0 24 24">
    <path fill-rule="evenodd" clip-rule="evenodd" d="M19.5 3h-15C3.66 3 3 3.66 3 4.5v15c0 .84.66 1.5 1.5 1.5h15c.84 0 1.5-.66 1.5-1.5v-15c0-.84-.66-1.5-1.5-1.5zm-7.448 11.26H9.8v-2.295h2.252V9.957c0-1.636 1.238-3.014 2.815-3.157H17.4v2.296h-2.252a.838.838 0 0 0-.844.86v2.01h2.814v2.295h-2.814v5.94h-2.252v-5.94zm2.877 5.94h4.393c.497 0 .878-.38.878-.878V4.678a.863.863 0 0 0-.878-.879H4.678a.863.863 0 0 0-.879.879v14.643c0 .497.38.878.879.878h6.735V14.93H9.071v-3.515h2.343V9.95A3.844 3.844 0 0 1 14.9 6.143h3.251v3.514h-2.929c-.175 0-.292.117-.292.293v1.464h2.928v3.515H14.93V20.2z" fill="#fff"/>
    <mask id="a" maskUnits="userSpaceOnUse" x="3" y="3" width="18" height="18">
        <path fill-rule="evenodd" clip-rule="evenodd" d="M16.5 0h-15C.66 0 0 .66 0 1.5v15c0 .84.66 1.5 1.5 1.5h15c.84 0 1.5-.66 1.5-1.5v-15c0-.84-.66-1.5-1.5-1.5zM9.052 11.26H6.8V8.966h2.252V6.957c0-1.636 1.238-3.014 2.815-3.157H14.4v2.296h-2.252a.838.838 0 0 0-.844.86v2.01h2.814v2.295h-2.814v5.94H9.052v-5.94zm2.877 5.94h4.393c.497 0 .878-.38.878-.878V1.678A.863.863 0 0 0 16.322.8H1.678a.863.863 0 0 0-.879.879v14.643c0 .497.38.878.879.878h6.735V11.93H6.071V8.414h2.343V6.95A3.844 3.844 0 0 1 11.9 3.143h3.251v3.514h-2.929c-.175 0-.292.117-.292.293v1.464h2.928v3.515H11.93V17.2z" transform="translate(3 3)" fill="#fff"/>
    </mask>
</symbol><symbol id="img"/><symbol id="instagram" viewBox="0 0 24 24">
    <path fill-rule="evenodd" clip-rule="evenodd" d="M16.033 3H7.967A4.973 4.973 0 0 0 3 7.967v8.066A4.973 4.973 0 0 0 7.967 21h8.066A4.973 4.973 0 0 0 21 16.033V7.967A4.973 4.973 0 0 0 16.033 3zM20 16.358A3.646 3.646 0 0 1 16.358 20H7.642A3.646 3.646 0 0 1 4 16.358V7.642A3.646 3.646 0 0 1 7.642 4h8.716A3.646 3.646 0 0 1 20 7.642v8.716zM7.362 12A4.643 4.643 0 0 1 12 7.362 4.643 4.643 0 0 1 16.638 12 4.643 4.643 0 0 1 12 16.638 4.643 4.643 0 0 1 7.362 12zm9.073-6.166a.804.804 0 0 1 1.13 0 .804.804 0 0 1 0 1.132A.808.808 0 0 1 17 7.2a.807.807 0 0 1-.565-.234.807.807 0 0 1-.235-.566.805.805 0 0 1 .235-.566z" fill="#fff"/>
    <mask id="a" maskUnits="userSpaceOnUse" x="7" y="5" width="11" height="12">
        <path fill-rule="evenodd" clip-rule="evenodd" d="M9.073.234a.803.803 0 0 1 1.131 0 .804.804 0 0 1 0 1.132.808.808 0 0 1-.566.234.807.807 0 0 1-.565-.234A.807.807 0 0 1 8.838.8a.805.805 0 0 1 .235-.566zM4.638 1.762A4.643 4.643 0 0 0 0 6.4a4.643 4.643 0 0 0 4.638 4.638A4.643 4.643 0 0 0 9.276 6.4a4.643 4.643 0 0 0-4.638-4.638zm0 8.478A3.844 3.844 0 0 1 .798 6.4a3.844 3.844 0 0 1 3.84-3.84 3.844 3.844 0 0 1 3.84 3.84 3.844 3.844 0 0 1-3.84 3.84z" transform="translate(7.362 5.6)" fill="#fff"/>
    </mask>
</symbol><symbol id="location" viewBox="0 0 14 16">
    <g clip-rule="evenodd" stroke="#262626">
        <path d="M7 15.286l4.24-4.322c2.347-2.394 2.347-6.28 0-8.673a5.912 5.912 0 0 0-8.48 0C.414 4.685.414 8.57 2.76 10.964L7 15.286z"/>
        <path d="M7 8.5a2 2 0 1 0 0-4 2 2 0 0 0 0 4z"/>
    </g>
</symbol><symbol id="logo" viewBox="0 0 107 13">
    <g fill="#000">
        <path d="M8.333 1.468v5.867c0 1.955-.85 2.763-2.891 2.763-2.04 0-2.891-.808-2.891-2.763V1.213H.595a.274.274 0 0 0-.255.255V7.42c0 3.273 2.083 4.421 5.102 4.421 3.018 0 5.101-1.148 5.101-4.421V1.213H8.588c-.128 0-.255.085-.255.255zM36.775 2.913c.17 0 .255-.042.298-.17l.552-1.403c.043-.085 0-.127-.085-.127h-7.907c-.723 0-1.02.212-1.02.722v9.098c0 .425.212.638.764.638h7.355c.17 0 .256-.042.298-.17l.553-1.403c.042-.085 0-.127-.085-.127H30.78V8.1c0-.638.34-.935 1.318-.935h2.934c.17 0 .255-.043.297-.17l.553-1.36c.043-.086 0-.128-.085-.128h-4.974V2.87h5.952v.042z"/>
        <path fill-rule="evenodd" clip-rule="evenodd" d="M22.873 6.144c.85-.467 1.19-1.275 1.19-2.296 0-2.295-1.87-2.635-3.826-2.635h-4.464c-.723 0-1.02.212-1.02.722v9.098c0 .425.212.638.765.638h5.484c2.083 0 3.529-.808 3.529-2.89.042-1.276-.468-2.34-1.658-2.637zm-5.91-3.273h3.444c1.148 0 1.488.425 1.488 1.318 0 .892-.34 1.318-1.488 1.318h-3.444V2.87zm0 7.1h3.869c1.233 0 1.573-.426 1.573-1.403 0-.978-.34-1.446-1.573-1.446h-2.55c-.979 0-1.319.298-1.319.935v1.914zM48.976 7.462l2.339 4.04c.042.042.042.17-.043.17h-1.998c-.17 0-.212-.043-.298-.17l-2.125-3.827h-1.913c-.978 0-1.318.297-1.318.935v3.061h-1.913a.274.274 0 0 1-.256-.255v-9.48c0-.51.298-.723 1.02-.723h4.465c2.593 0 4.166.68 4.166 3.23 0 1.956-.978 2.722-2.126 3.02zM43.577 6.06h3.656c1.36 0 1.658-.51 1.658-1.615 0-1.063-.297-1.573-1.658-1.573h-3.656v3.188z"/>
    </g>
    <g fill="#57AD56" stroke="#57AD56" stroke-width=".25">
        <path d="M67.598 10.736l-.043.935h-7.737V1.213h7.44l.042.977h-6.42v3.614h5.527v.85H60.88v4.082h6.718z"/>
        <path fill-rule="evenodd" clip-rule="evenodd" d="M74.017 8.95h6.165l1.19 2.721h1.19L77.76 1.213h-1.233L71.679 11.67h1.148l1.19-2.72zm.383-.893l2.253-5.059.425-1.063h.043l.425 1.063 2.21 5.06H74.4z"/>
        <path d="M90.215 2.19v9.481h-1.062v-9.48H85.24l.043-.978h8.885v.977h-3.954zM101.737 11.884c-1.446 0-2.594-.34-3.529-.893l.17-.935a6.744 6.744 0 0 0 3.401.892c1.956 0 2.976-.892 2.976-2.168 0-2.763-6.377-1.318-6.377-4.889 0-1.53 1.148-2.891 3.826-2.891 1.233 0 2.339.213 3.231.638l-.17.893c-.977-.383-1.913-.596-3.018-.596-2.083 0-2.849.936-2.849 1.87 0 2.637 6.378 1.149 6.378 4.89-.043 1.87-1.403 3.189-4.04 3.189z"/>
    </g>
</symbol><symbol id="search" viewBox="0 0 22 22">
    <path fill-rule="evenodd" clip-rule="evenodd" d="M6.036 0A5.944 5.944 0 0 1 12 5.964c0 1.527-.582 2.909-1.455 3.854L16 15.273l-.655.654-5.454-5.454c-1.09.872-2.473 1.454-3.927 1.454A5.944 5.944 0 0 1 0 5.964C0 2.69 2.69 0 6.036 0zM.873 5.964c0 2.836 2.327 5.09 5.09 5.09a5.06 5.06 0 0 0 5.091-5.09A5.06 5.06 0 0 0 5.964.873C3.127.873.873 3.2.873 5.963z" fill="#262626"/>
</symbol><symbol id="select-arrow" viewBox="0 0 14 8">
    <path d="M1.418 0L0 1.346 7 8l7-6.654L12.582 0 7 5.304 1.418 0z" fill="#fff"/>
</symbol><symbol id="twitter" viewBox="0 0 24 24">
    <path fill-rule="evenodd" clip-rule="evenodd" d="M20.53 6.095a.395.395 0 0 1 .367.094c.091.093.122.25.091.375-.274.906-.824 1.562-1.497 1.906v.093c0 6.031-4.399 10.937-9.776 10.937-3.025 0-5.469-.531-6.569-1.437-.122-.125-.183-.282-.122-.47a.436.436 0 0 1 .397-.28c1.803-.032 2.964-.469 3.85-1-1.711-.219-2.78-1.063-3.33-2.656a.346.346 0 0 1 .122-.406.423.423 0 0 1 .427-.032c.459.313.917.375 1.467.375-1.161-.718-2.23-1.906-2.658-3.374-.03-.157.03-.344.153-.407.152-.093.305-.062.427.032.336.28.703.468 1.253.562-1.191-1.25-1.925-3.093-.886-5.124l.183-.375.306.312c1.894 2.031 3.635 2.969 6.813 3.593v-.125c0-2.28 1.741-4.155 3.91-4.187.856 0 2.047.625 2.536.907.012 0 .024.004.034.008.016.006.028.01.028-.008.61-.188 1.344-.5 2.2-.875a.32.32 0 0 1 .366.062c.092.094.122.219.061.375a4.302 4.302 0 0 1-.764 1.344l.611-.22zm-1.795 2.143l.178-.06c.564-.212.89-.665 1.097-1.057l-1.156.393c-.148.06-.326 0-.385-.151-.06-.151-.03-.332.089-.423.474-.392.83-.815 1.096-1.267-.593.241-1.126.452-1.57.603-.179.06-.356.03-.534-.06l-.018-.01c-.348-.193-1.446-.805-2.116-.775-1.779.03-3.201 1.57-3.201 3.44v.846l-.356-.06c-3.26-.604-5.068-1.48-6.965-3.38-.89 2.293.948 3.892 1.57 4.345l.741.543h-.918c-.593 0-1.245-.06-1.838-.332.652 1.388 1.986 2.415 3.112 2.747l-.089.603c-.237 0-.474 0-.711.03-.623.03-1.186.03-1.72-.15.594 1.146 1.631 1.63 3.32 1.63h.89l-.741.542c-.92.725-2.105 1.389-4.15 1.54.978.482 2.786.935 5.483.935 4.622 0 8.892-4.71 8.892-9.96v-.512z" fill="#fff"/>
    <mask id="a" maskUnits="userSpaceOnUse" x="3" y="4" width="18" height="16">
        <path fill-rule="evenodd" clip-rule="evenodd" d="M17.53 1.595a.395.395 0 0 1 .367.094c.091.093.122.25.091.375-.274.906-.824 1.562-1.497 1.906v.093C16.491 10.094 12.092 15 6.715 15c-3.025 0-5.469-.531-6.569-1.437-.122-.125-.183-.282-.122-.47a.436.436 0 0 1 .397-.28c1.803-.032 2.964-.469 3.85-1C2.56 11.594 1.49 10.75.94 9.157a.346.346 0 0 1 .122-.406.423.423 0 0 1 .427-.032c.459.313.917.375 1.467.375C1.796 8.376.727 7.188.299 5.72c-.03-.157.03-.344.153-.407.152-.093.305-.062.427.032.336.28.703.468 1.253.562C.941 4.657.207 2.814 1.246.783l.183-.375.306.312C3.629 2.751 5.37 3.689 8.548 4.313v-.125c0-2.28 1.741-4.155 3.91-4.187.856 0 2.047.625 2.536.907.012 0 .024.004.034.008.016.006.028.01.028-.008.61-.188 1.344-.5 2.2-.875a.32.32 0 0 1 .366.062c.092.094.122.219.061.375a4.302 4.302 0 0 1-.764 1.344l.611-.22zm-1.795 2.143l.178-.06c.564-.212.89-.665 1.097-1.057l-1.156.393c-.148.06-.326 0-.385-.151-.06-.151-.03-.332.089-.423.474-.392.83-.815 1.096-1.267-.593.241-1.126.452-1.57.603-.178.06-.356.03-.534-.06l-.018-.01c-.348-.193-1.446-.805-2.116-.775-1.779.03-3.201 1.57-3.201 3.44v.846l-.356-.06c-3.26-.604-5.068-1.48-6.965-3.38-.89 2.293.948 3.892 1.57 4.345l.741.543h-.918c-.593 0-1.245-.06-1.838-.332C2.1 7.721 3.435 8.748 4.56 9.08l-.089.603c-.237 0-.474 0-.711.03-.623.03-1.186.03-1.72-.15.594 1.146 1.631 1.63 3.32 1.63h.89l-.741.542c-.92.725-2.105 1.389-4.15 1.54.978.482 2.786.935 5.483.935 4.622 0 8.892-4.71 8.892-9.96v-.512z" transform="translate(3 4.5)" fill="#fff"/>
    </mask>
</symbol><symbol id="white-logo" viewBox="0 0 192 21">
    <g fill="#fff">
        <path d="M15.077 1.846v10.616c0 3.538-1.539 5-5.23 5-3.693 0-5.232-1.462-5.232-5V1.385H1.077c-.23 0-.462.23-.462.461v10.77c0 5.922 3.77 8 9.231 8 5.462 0 9.23-2.078 9.23-8V1.384h-3.538c-.23 0-.461.153-.461.461zM66.538 4.462c.308 0 .462-.077.539-.308l1-2.539c.077-.153 0-.23-.154-.23H53.615c-1.307 0-1.846.384-1.846 1.307v16.462c0 .77.385 1.154 1.385 1.154h13.308c.307 0 .461-.077.538-.308l1-2.538c.077-.154 0-.231-.154-.231H55.692v-3.385c0-1.154.616-1.692 2.385-1.692h5.308c.307 0 .461-.077.538-.308l1-2.461c.077-.154 0-.231-.154-.231h-9v-4.77h10.77v.078z"/>
        <path fill-rule="evenodd" clip-rule="evenodd" d="M41.385 10.308c1.538-.846 2.154-2.308 2.154-4.154 0-4.154-3.385-4.77-6.924-4.77h-8.077c-1.307 0-1.846.385-1.846 1.308v16.462c0 .77.385 1.154 1.385 1.154H38c3.77 0 6.385-1.462 6.385-5.231.077-2.308-.846-4.23-3-4.77zM30.692 4.385h6.231c2.077 0 2.692.769 2.692 2.384 0 1.616-.615 2.385-2.692 2.385h-6.23v-4.77zm0 12.846h7c2.231 0 2.847-.77 2.847-2.539 0-1.769-.616-2.615-2.847-2.615h-4.615c-1.77 0-2.385.538-2.385 1.692v3.462zM88.615 12.692L92.846 20c.077.077.077.308-.077.308h-3.615c-.308 0-.385-.077-.539-.308l-3.846-6.923h-3.461c-1.77 0-2.385.538-2.385 1.692v5.539h-3.461a.496.496 0 0 1-.462-.462V2.692c0-.923.538-1.307 1.846-1.307h8.077c4.692 0 7.539 1.23 7.539 5.846 0 3.538-1.77 4.923-3.847 5.461zm-9.769-2.538h6.615c2.462 0 3-.923 3-2.923 0-1.923-.538-2.846-3-2.846h-6.615v5.769z"/>
    </g>
    <g fill="#57AD56" stroke="#57AD56" stroke-width=".25">
        <path d="M122.308 18.615l-.077 1.693h-14V1.385h13.461l.078 1.769h-11.616v6.538h10v1.539h-10v7.384h12.154z"/>
        <path fill-rule="evenodd" clip-rule="evenodd" d="M133.923 15.385h11.154l2.153 4.923h2.154l-8.692-18.923h-2.23l-8.77 18.923h2.077l2.154-4.923zm.692-1.616l4.077-9.154.77-1.923h.076l.77 1.923 4 9.154h-9.693z"/>
        <path d="M163.231 3.154v17.154h-1.923V3.154h-7.077l.077-1.77h16.077v1.77h-7.154zM184.077 20.692c-2.616 0-4.693-.615-6.385-1.615l.308-1.692c1.769 1 3.769 1.615 6.154 1.615 3.538 0 5.384-1.615 5.384-3.923 0-5-11.538-2.385-11.538-8.846C178 3.46 180.077 1 184.923 1c2.23 0 4.23.385 5.846 1.154l-.308 1.615C188.692 3.077 187 2.692 185 2.692c-3.77 0-5.154 1.693-5.154 3.385 0 4.77 11.538 2.077 11.538 8.846-.077 3.385-2.538 5.77-7.307 5.77z"/>
    </g>
</symbol><symbol id="world" viewBox="0 0 16 16">
    <path fill-rule="evenodd" clip-rule="evenodd" d="M11.112 5.427c-.461-2.216-1.849-3.882-2.691-4.231v4.343c.842-.01 1.95-.054 2.691-.112zm2.913-.464c-.153.047-.775.22-2.005.366-.278-1.476-.779-2.734-1.433-3.643a6.915 6.915 0 0 1 3.438 3.277zM8.421 6.517a46.484 46.484 0 0 0 2.806-.122c.065.518.081 1.054.081 1.606 0 .709-.025 1.396-.13 2.045a45.886 45.886 0 0 0-2.757-.117V6.517zm0 4.39v3.9c.842-.326 2.089-1.8 2.589-3.795a44.461 44.461 0 0 0-2.589-.105zm2.166 3.41c.59-.82 1.058-1.918 1.348-3.208.968.111 1.577.24 1.885.318a6.918 6.918 0 0 1-3.233 2.89zm1.58-8.02a14.797 14.797 0 0 1-.058 3.845c1.195.14 1.874.31 2.145.388a6.83 6.83 0 0 0 .488-2.529c0-.883-.172-1.758-.505-2.576l.158.447c-.044.015-.714.243-2.227.425z" fill="#fff"/>
</symbol></svg>